<svg viewBox="0 0 60 60" class="uqdzed"><g fill="none" fill-rule="evenodd"><path d="M28.486 59.97c-6.636-.57-11.563-2.328-16.322-5.825C4.444 48.472 0 39.647 0 29.987 0 15.112 10.507 2.798 25.274.367c6.029-.992 12.704.05 18.288 2.854 13.577 6.818 19.782 22.54 14.643 37.103-3.528 9.998-12.79 17.618-23.391 19.245-2.086.32-5.065.509-6.328.4z" fill="#3B5998" fill-rule="nonzero"></path><path d="M25.73 45h5.459V30.007h4.095l.81-4.684h-4.905v-3.395c0-1.094.707-2.243 1.719-2.243h2.787V15H32.28v.021c-5.345.194-6.443 3.29-6.538 6.541h-.01v3.76H23v4.685h2.73V45z" fill="#FFF"></path></g></svg>
