
<svg viewBox="0 0 389 307" xmlns="http://www.w3.org/2000/svg">
  <path d="M156.605 189.17H139.127V158.721H113.235V189.17H95.6566V116.252H113.235V145.199H139.127V116.252H156.605V189.17ZM229.523 154.213C229.523 161.325 228.204 167.618 225.567 173.094C222.929 178.569 219.173 182.793 214.299 185.764C209.457 188.702 203.932 190.171 197.722 190.171C191.512 190.171 186.003 188.752 181.195 185.915C176.387 183.043 172.631 178.953 169.927 173.645C167.256 168.336 165.854 162.243 165.72 155.365V151.258C165.72 144.114 167.022 137.82 169.626 132.378C172.264 126.902 176.02 122.679 180.895 119.707C185.802 116.736 191.378 115.25 197.622 115.25C203.798 115.25 209.307 116.719 214.148 119.657C218.99 122.595 222.746 126.785 225.417 132.228C228.121 137.636 229.49 143.846 229.523 150.858V154.213ZM211.644 151.158C211.644 143.913 210.426 138.421 207.988 134.682C205.585 130.909 202.129 129.022 197.622 129.022C188.807 129.022 184.15 135.633 183.649 148.855L183.599 154.213C183.599 161.358 184.784 166.85 187.155 170.69C189.525 174.529 193.048 176.449 197.722 176.449C202.162 176.449 205.585 174.563 207.988 170.79C210.392 167.017 211.611 161.592 211.644 154.514V151.158ZM256.166 175.648H286.766V189.17H238.588V116.252H256.166V175.648ZM306.848 147.903L320.27 116.252H339.251L315.763 162.977V189.17H297.934V162.977L274.496 116.252H293.377L306.848 147.903Z"/>
  <path d="M28.5145 280.34V207.422H54.7069C64.0887 207.422 71.2169 209.141 76.0915 212.58C80.9994 216.019 83.4534 221.01 83.4534 227.554C83.4534 231.327 82.5853 234.549 80.8492 237.22C79.1131 239.891 76.5589 241.861 73.1868 243.129C76.993 244.131 79.9143 246.001 81.951 248.738C83.9876 251.476 85.0059 254.815 85.0059 258.755C85.0059 265.9 82.7356 271.275 78.1949 274.881C73.6876 278.453 66.9934 280.273 58.1124 280.34H28.5145ZM46.0929 249.339V266.818H57.6116C60.7834 266.818 63.2207 266.1 64.9234 264.664C66.6262 263.195 67.4775 261.142 67.4775 258.504C67.4775 252.428 64.456 249.373 58.4129 249.339H46.0929ZM46.0929 237.821H55.2578C59.0973 237.787 61.8351 237.086 63.4711 235.717C65.107 234.348 65.925 232.329 65.925 229.658C65.925 226.586 65.0403 224.382 63.2707 223.047C61.5012 221.678 58.6466 220.994 54.7069 220.994H46.0929V237.821ZM113.452 280.34H95.9236V207.422H113.452V280.34ZM125.672 280.34V207.422H151.864C161.246 207.422 168.374 209.141 173.249 212.58C178.157 216.019 180.611 221.01 180.611 227.554C180.611 231.327 179.743 234.549 178.006 237.22C176.27 239.891 173.716 241.861 170.344 243.129C174.15 244.131 177.072 246.001 179.108 248.738C181.145 251.476 182.163 254.815 182.163 258.755C182.163 265.9 179.893 271.275 175.352 274.881C170.845 278.453 164.151 280.273 155.27 280.34H125.672ZM143.25 249.339V266.818H154.769C157.941 266.818 160.378 266.1 162.081 264.664C163.783 263.195 164.635 261.142 164.635 258.504C164.635 252.428 161.613 249.373 155.57 249.339H143.25ZM143.25 237.821H152.415C156.255 237.787 158.992 237.086 160.628 235.717C162.264 234.348 163.082 232.329 163.082 229.658C163.082 226.586 162.198 224.382 160.428 223.047C158.658 221.678 155.804 220.994 151.864 220.994H143.25V237.821ZM209.457 266.818H240.057V280.34H191.879V207.422H209.457V266.818ZM292.692 249.44H265.047V266.818H297.7V280.34H247.469V207.422H297.8V220.994H265.047V236.368H292.692V249.44Z"/>
  <path d="M87.6491 38.6539H65.7637V98H48.1852V38.6539H26.7005V25.082H87.6491V38.6539ZM156.06 98H138.582V67.5507H112.69V98H95.1112V25.082H112.69V54.0288H138.582V25.082H156.06V98ZM212.451 67.1H184.806V84.4781H217.459V98H167.228V25.082H217.559V38.6539H184.806V54.0288H212.451V67.1Z"/>
  <path fill-rule="evenodd" clip-rule="evenodd" d="M364.887 45.7358H242.377V98.4434H364.887V45.7358ZM276.361 79.1891C277.099 79.6065 277.467 80.1838 277.467 80.9211C277.467 81.6306 277.168 82.2079 276.57 82.6531C275.986 83.0843 275.116 83.3 273.962 83.3C272.724 83.3 271.736 83.0148 270.999 82.4444C270.261 81.874 269.865 81.0533 269.809 79.9821H264.092C264.092 81.3454 264.509 82.6183 265.344 83.8008C266.178 84.9693 267.326 85.8944 268.787 86.5761C270.261 87.2438 271.944 87.5777 273.836 87.5777C276.633 87.5777 278.914 86.9448 280.681 85.6788C282.448 84.399 283.331 82.7296 283.331 80.6707C283.331 77.791 281.738 75.7669 278.552 74.5984C277.523 74.2228 276.257 73.8889 274.755 73.5968C273.252 73.2907 272.181 72.936 271.541 72.5325C270.915 72.1152 270.602 71.5726 270.602 70.9049C270.602 70.1954 270.88 69.6111 271.437 69.1521C271.993 68.693 272.779 68.4634 273.795 68.4634C274.977 68.4634 275.847 68.7486 276.403 69.319C276.96 69.8755 277.238 70.5849 277.238 71.4474H283.268C283.268 69.2912 282.406 67.5383 280.681 66.1889C278.97 64.8395 276.681 64.1648 273.816 64.1648C271.131 64.1648 268.954 64.8395 267.284 66.1889C265.629 67.5244 264.801 69.1938 264.801 71.197C264.801 74.6332 267.486 76.9146 272.856 78.0414C274.469 78.3753 275.638 78.7579 276.361 79.1891ZM299.712 85.1363C299.837 85.9431 300.039 86.6178 300.317 87.1604H306.41V86.8056C305.826 85.7066 305.527 84.086 305.513 81.9436V72.1569C305.513 69.625 304.692 67.6635 303.05 66.2724C301.423 64.8673 299.218 64.1648 296.436 64.1648C294.599 64.1648 292.944 64.4848 291.469 65.1247C289.995 65.7507 288.854 66.6202 288.047 67.7331C287.24 68.846 286.837 70.0563 286.837 71.364H292.867C292.867 70.5154 293.152 69.8476 293.723 69.3607C294.307 68.8738 295.107 68.6304 296.123 68.6304C297.277 68.6304 298.119 68.9434 298.647 69.5694C299.19 70.1954 299.461 71.0301 299.461 72.0735V73.3672H296.686C293.333 73.3811 290.767 74.028 288.986 75.3079C287.219 76.5877 286.336 78.424 286.336 80.8168C286.336 82.7644 287.059 84.3781 288.506 85.6579C289.967 86.9378 291.803 87.5777 294.015 87.5777C296.352 87.5777 298.251 86.7639 299.712 85.1363ZM297.792 82.3818C297.041 82.7713 296.22 82.9661 295.33 82.9661C294.411 82.9661 293.688 82.7226 293.159 82.2357C292.631 81.7488 292.366 81.1298 292.366 80.3786L292.387 80.0238C292.582 77.9371 294.189 76.8938 297.208 76.8938H299.461V80.775C299.1 81.4428 298.543 81.9784 297.792 82.3818ZM311.794 69.006V87.1604H317.845V69.006H322.332V64.5822H317.845V62.7667C317.845 60.6383 318.979 59.5741 321.247 59.5741C321.97 59.5741 322.582 59.6367 323.083 59.7619L323.145 55.0876C321.935 54.8094 320.913 54.6703 320.078 54.6703C317.463 54.6703 315.425 55.3728 313.964 56.7779C312.517 58.169 311.794 60.1305 311.794 62.6624V64.5822H308.434V69.006H311.794ZM327.256 84.5311C329.343 86.5622 332.042 87.5777 335.353 87.5777C337.231 87.5777 338.942 87.223 340.486 86.5135C342.03 85.7901 343.254 84.7885 344.159 83.5086L341.195 80.1908C339.888 81.874 338.072 82.7157 335.749 82.7157C334.247 82.7157 333.002 82.2705 332.014 81.3802C331.04 80.4899 330.456 79.3074 330.261 77.8328H344.639V75.3705C344.639 71.7952 343.748 69.0338 341.968 67.0862C340.201 65.1386 337.773 64.1648 334.685 64.1648C332.626 64.1648 330.79 64.6517 329.176 65.6255C327.576 66.5854 326.338 67.9626 325.462 69.7572C324.585 71.5379 324.147 73.562 324.147 75.8295V76.4138C324.147 79.7943 325.183 82.5001 327.256 84.5311ZM331.743 70.258C332.494 69.4512 333.468 69.0477 334.664 69.0477C335.944 69.0477 336.932 69.4164 337.627 70.1537C338.323 70.8771 338.684 71.9065 338.712 73.242V73.722H330.324C330.532 72.2195 331.005 71.0649 331.743 70.258Z"/>
</svg>